<svg width="22" height="21" viewBox="0 0 22 21" fill="none" xmlns="http://www.w3.org/2000/svg">
<path fill-rule="evenodd" clip-rule="evenodd" d="M18.1649 12.6033C17.7221 13.031 17.5209 13.6472 17.6246 14.2516L18.2935 18.1189C18.5019 19.3228 17.5375 20.3005 16.4435 20.3005C16.1553 20.3005 15.8577 20.2323 15.5694 20.0822L12.0697 18.2562C11.7959 18.114 11.4963 18.0429 11.1955 18.0429C10.8959 18.0429 10.5962 18.114 10.3224 18.2562L6.82272 20.0822C6.53445 20.2323 6.23685 20.3005 5.94858 20.3005C4.8546 20.3005 3.89023 19.3228 4.09866 18.1189L4.76749 14.2516C4.87119 13.6472 4.67002 13.031 4.22724 12.6033L1.39533 9.86482C0.281649 8.78738 0.896563 6.91001 2.4354 6.68781L6.34884 6.12391C6.96064 6.03601 7.48948 5.65481 7.7622 5.10474L9.51257 1.587C9.85684 0.894717 10.5267 0.549072 11.1955 0.549072C11.8654 0.549072 12.5353 0.894717 12.8795 1.587L14.6299 5.10474C14.9026 5.65481 15.4315 6.03601 16.0433 6.12391L19.9567 6.68781C21.4956 6.91001 22.1105 8.78738 20.9968 9.86482L18.1649 12.6033Z" fill="white"/>
</svg>
